PathFileType	4	(X/Y/Z)	/tmp/tmpl7bk8b07//results/MarkerData/Run_5.trc
DataRate	CameraRate	NumFrames	NumMarkers	Units	OrigDataRate	OrigDataStartFrame	OrigNumFrames
100	100	8	42	m	100	249	499
Frame#	Time	C7			CLAV			LACR			LASI			LCAL			LFAradius			LFAsuperior			LFAulna			LLEL			LMEL			LMT5			LPSI			LTB1			LTB2			LTB3			LTH1			LTH2			LTH3			LTOE			LUA1			LUA2			LUA3			RACR			RASI			RCAL			RFAradius			RFAsuperior			RFAulna			RLEL			RMEL			RMT5			RPSI			RTB1			RTB2			RTB3			RTH1			RTH2			RTH3			RTOE			RUA1			RUA2			RUA3		
		X1	Y1	Z1	X2	Y2	Z2	X3	Y3	Z3	X4	Y4	Z4	X5	Y5	Z5	X6	Y6	Z6	X7	Y7	Z7	X8	Y8	Z8	X9	Y9	Z9	X10	Y10	Z10	X11	Y11	Z11	X12	Y12	Z12	X13	Y13	Z13	X14	Y14	Z14	X15	Y15	Z15	X16	Y16	Z16	X17	Y17	Z17	X18	Y18	Z18	X19	Y19	Z19	X20	Y20	Z20	X21	Y21	Z21	X22	Y22	Z22	X23	Y23	Z23	X24	Y24	Z24	X25	Y25	Z25	X26	Y26	Z26	X27	Y27	Z27	X28	Y28	Z28	X29	Y29	Z29	X30	Y30	Z30	X31	Y31	Z31	X32	Y32	Z32	X33	Y33	Z33	X34	Y34	Z34	X35	Y35	Z35	X36	Y36	Z36	X37	Y37	Z37	X38	Y38	Z38	X39	Y39	Z39	X40	Y40	Z40	X41	Y41	Z41	X42	Y42	Z42

250	2.52	0.837547	1.47391	-0.345071	0.953714	1.38641	-0.321264	0.899374	1.43657	-0.520666	0.904438	0.969135	-0.477375	0.650444	0.476358	-0.409759	0.874599	0.97925	-0.595468	0.780021	1.1023	-0.659659	0.828819	0.951395	-0.644192	0.703201	1.18664	-0.657851	0.680801	1.17562	-0.584547	0.626508	0.290214	-0.472323	0.735443	0.994486	-0.3943	0.956198	0.416865	-0.3914	0.870796	0.434511	-0.46607	0.803171	0.392351	-0.40215	0.870921	0.768402	-0.498075	1.00243	0.684804	-0.490299	1.01002	0.567889	-0.472494	0.647521	0.248421	-0.380517	0.827825	1.36908	-0.595632	0.758494	1.30604	-0.554325	0.733555	1.26183	-0.618216	0.915112	1.45809	-0.184394	0.908116	0.984557	-0.206021	0.517328	0.127986	-0.310813	1.06488	1.10577	-0.0374464	0.925284	1.15286	0.0132652	1.03794	1.04534	-0.0103639	0.821109	1.18469	0.0163658	0.793377	1.15217	-0.0517059	0.675048	0.0572938	-0.225155	0.734223	1.00316	-0.294917	0.801091	0.335707	-0.296636	0.747642	0.292847	-0.238042	0.690326	0.200524	-0.299108	0.807981	0.797602	-0.158957	0.885723	0.69155	-0.182412	0.808206	0.572939	-0.211094	0.734455	0.0642085	-0.310786	0.874576	1.39178	-0.0869332	0.809232	1.31362	-0.0980667	0.84386	1.27904	-0.0394889
251	2.53	0.836546	1.47834	-0.344763	0.953754	1.39191	-0.324435	0.89364	1.44297	-0.521623	0.904798	0.974945	-0.47899	0.675145	0.446953	-0.408776	0.856404	0.994543	-0.601485	0.76055	1.1183	-0.660781	0.807432	0.966607	-0.64673	0.684511	1.2036	-0.654377	0.665679	1.19207	-0.580178	0.676666	0.258593	-0.469517	0.737525	0.999499	-0.392743	0.988906	0.425172	-0.390412	0.900687	0.433606	-0.463854	0.83861	0.382173	-0.400641	0.878487	0.776353	-0.499649	1.01497	0.701309	-0.490182	1.02973	0.585827	-0.47117	0.704903	0.220875	-0.378863	0.817775	1.37989	-0.594047	0.748306	1.31924	-0.550524	0.719213	1.27661	-0.614407	0.918844	1.46416	-0.187176	0.91075	0.984159	-0.207507	0.472773	0.141125	-0.307069	1.07826	1.12387	-0.0426133	0.938604	1.16366	0.0114035	1.05542	1.06258	-0.0140323	0.832881	1.19128	0.0174467	0.805092	1.15776	-0.0498964	0.626111	0.0575581	-0.224948	0.737026	1.00632	-0.292614	0.760672	0.336872	-0.29494	0.706589	0.29761	-0.235188	0.646662	0.207169	-0.296725	0.801553	0.800274	-0.160445	0.870312	0.690965	-0.18394	0.782841	0.576358	-0.210554	0.684576	0.0633027	-0.310579	0.882134	1.39818	-0.0882926	0.815915	1.32061	-0.0959451	0.853327	1.28544	-0.0395216
252	2.54	0.835531	1.48319	-0.344892	0.953838	1.39822	-0.327739	0.888118	1.44992	-0.522432	0.906365	0.982229	-0.479922	0.702451	0.414733	-0.405703	0.840138	1.01092	-0.605745	0.743258	1.13538	-0.660212	0.788747	0.982885	-0.64793	0.668016	1.22079	-0.650355	0.652619	1.20887	-0.575216	0.73059	0.228755	-0.466755	0.740926	1.00518	-0.392271	1.01908	0.433214	-0.390358	0.928933	0.433379	-0.461872	0.874415	0.371442	-0.398737	0.886384	0.785359	-0.501945	1.02681	0.717715	-0.490155	1.0468	0.603281	-0.470502	0.765926	0.195162	-0.377571	0.808945	1.39144	-0.592101	0.739396	1.33328	-0.547574	0.707012	1.29166	-0.611211	0.92204	1.47085	-0.190306	0.914533	0.983863	-0.20828	0.431728	0.156939	-0.303946	1.08947	1.14221	-0.048452	0.950296	1.1756	0.00884955	1.07055	1.08013	-0.0188933	0.843596	1.19914	0.0182802	0.815252	1.16472	-0.0488434	0.578211	0.0583909	-0.225115	0.7413	1.01094	-0.291412	0.72157	0.342072	-0.292379	0.667045	0.305009	-0.231976	0.605793	0.215928	-0.294737	0.795188	0.804698	-0.161695	0.854477	0.69229	-0.184847	0.757014	0.583258	-0.210503	0.635039	0.0613101	-0.311351	0.889088	1.40553	-0.0900998	0.82263	1.32844	-0.0947143	0.862554	1.29285	-0.0396571
253	2.55	0.834637	1.48811	-0.345365	0.953958	1.40481	-0.330841	0.883397	1.45688	-0.52303	0.90932	0.990895	-0.479655	0.733201	0.380451	-0.400794	0.825905	1.0273	-0.608347	0.72777	1.15245	-0.658235	0.772659	0.999327	-0.647854	0.653728	1.23771	-0.645863	0.641388	1.22572	-0.56976	0.787901	0.20144	-0.464099	0.745075	1.01138	-0.392579	1.04702	0.440371	-0.390911	0.955487	0.432033	-0.459755	0.910905	0.36052	-0.396748	0.895572	0.795915	-0.505181	1.03819	0.733982	-0.490697	1.06145	0.619679	-0.470547	0.830193	0.172908	-0.376345	0.801844	1.40322	-0.590188	0.732165	1.34765	-0.545244	0.696792	1.30668	-0.608395	0.924542	1.47775	-0.193566	0.919303	0.984014	-0.208782	0.394944	0.17518	-0.301614	1.09857	1.16021	-0.0547701	0.960287	1.18831	0.00615894	1.08343	1.09733	-0.0247363	0.853274	1.20776	0.0189823	0.823584	1.17259	-0.047965	0.531365	0.0604274	-0.225141	0.74665	1.01633	-0.291445	0.685039	0.351495	-0.288939	0.629635	0.316026	-0.228157	0.56884	0.226924	-0.292551	0.789465	0.810674	-0.162418	0.839326	0.695572	-0.185134	0.732777	0.594045	-0.210207	0.586411	0.0596701	-0.311938	0.895174	1.4133	-0.092327	0.829032	1.33673	-0.093698	0.871367	1.30087	-0.03983
254	2.56	0.833982	1.49284	-0.34594	0.95412	1.41122	-0.333559	0.879746	1.46346	-0.523448	0.913388	1.00011	-0.478277	0.768026	0.344914	-0.394544	0.813776	1.04299	-0.609576	0.713777	1.16871	-0.6553	0.758971	1.01519	-0.646621	0.641411	1.25389	-0.640861	0.63168	1.24237	-0.563916	0.847729	0.176732	-0.461617	0.749549	1.01802	-0.393308	1.07307	0.446355	-0.391771	0.980631	0.428341	-0.457331	0.94813	0.349844	-0.395173	0.906068	0.807919	-0.509031	1.04865	0.749711	-0.491785	1.07325	0.634703	-0.470678	0.896736	0.155403	-0.374947	0.796542	1.4147	-0.588633	0.726695	1.36192	-0.543204	0.688244	1.32134	-0.605678	0.926395	1.4844	-0.196769	0.924387	0.984962	-0.209572	0.363054	0.195917	-0.299521	1.10567	1.17725	-0.0613465	0.968624	1.20103	0.00364436	1.09412	1.11362	-0.0311407	0.861858	1.21652	0.0195314	0.830242	1.18077	-0.0469681	0.486003	0.0645127	-0.224577	0.752148	1.02171	-0.292379	0.652371	0.364526	-0.284798	0.595145	0.331061	-0.223629	0.536455	0.240069	-0.289111	0.784556	0.817561	-0.162556	0.825613	0.700454	-0.184871	0.711558	0.607979	-0.209395	0.539442	0.0596218	-0.311767	0.900185	1.42095	-0.09491	0.834805	1.34527	-0.0924968	0.879399	1.30902	-0.0401685
255	2.57	0.833607	1.4972	-0.346334	0.95435	1.41714	-0.335886	0.877075	1.46938	-0.523771	0.917981	1.00894	-0.476283	0.807051	0.308901	-0.387606	0.803721	1.05757	-0.609766	0.701301	1.18364	-0.651904	0.747534	1.0299	-0.644505	0.630852	1.26892	-0.635373	0.62345	1.25834	-0.55791	0.909091	0.154591	-0.459413	0.75417	1.02493	-0.394208	1.09715	0.451115	-0.39271	1.00503	0.422055	-0.454907	0.98573	0.339602	-0.39424	0.916209	0.820303	-0.51248	1.05718	0.763906	-0.492979	1.08153	0.647824	-0.470123	0.964236	0.142722	-0.373632	0.792759	1.42531	-0.587559	0.722884	1.37554	-0.541258	0.681119	1.33511	-0.60293	0.927764	1.49043	-0.199761	0.929057	0.98682	-0.210754	0.336924	0.219261	-0.296807	1.11094	1.19277	-0.0679069	0.975378	1.2129	0.00145427	1.10273	1.12846	-0.0376357	0.869209	1.22478	0.0198538	0.835533	1.18857	-0.0459357	0.442797	0.0714669	-0.223365	0.756977	1.02677	-0.293689	0.624578	0.379623	-0.280384	0.564736	0.349018	-0.21881	0.508767	0.254769	-0.284078	0.780018	0.824926	-0.16219	0.81348	0.706342	-0.184051	0.693768	0.623272	-0.208378	0.494646	0.0618441	-0.310928	0.90402	1.42816	-0.0975304	0.83975	1.35375	-0.0912777	0.88616	1.31681	-0.0408466
256	2.58	0.833504	1.5011	-0.346413	0.954712	1.42245	-0.337905	0.875109	1.47456	-0.524089	0.922535	1.01686	-0.474055	0.849802	0.27299	-0.380755	0.795652	1.07072	-0.609258	0.690627	1.1969	-0.64843	0.738313	1.04299	-0.641905	0.62199	1.28236	-0.629624	0.616888	1.27295	-0.552103	0.971313	0.135673	-0.457464	0.758809	1.03188	-0.395138	1.11853	0.4545	-0.3935	1.02933	0.413299	-0.453126	1.02291	0.3295	-0.393627	0.923904	0.831799	-0.514618	1.06283	0.775386	-0.493923	1.08612	0.658351	-0.468791	1.03141	0.133777	-0.372993	0.790083	1.43464	-0.586914	0.72051	1.38775	-0.539402	0.675287	1.34745	-0.600123	0.928847	1.49566	-0.20235	0.93282	0.989365	-0.211818	0.317476	0.244838	-0.29292	1.1146	1.2063	-0.0741701	0.980595	1.22322	-0.000377698	1.1094	1.14146	-0.0437884	0.875178	1.23199	0.0198843	0.839765	1.19536	-0.045175	0.401924	0.08185	-0.221974	0.760884	1.03169	-0.294959	0.60206	0.394666	-0.27631	0.539569	0.367478	-0.214418	0.485454	0.269936	-0.278271	0.775343	0.832642	-0.161722	0.802919	0.712664	-0.182716	0.679314	0.637719	-0.207598	0.4519	0.0666388	-0.309535	0.906781	1.4347	-0.0996926	0.843734	1.36158	-0.0904658	0.891273	1.32376	-0.0418806
257	2.59	0.833681	1.50456	-0.346281	0.955288	1.42717	-0.339682	0.873622	1.47898	-0.524457	0.926691	1.02365	-0.471683	0.895443	0.237486	-0.374854	0.789546	1.08217	-0.608391	0.682103	1.20826	-0.645075	0.731374	1.05409	-0.63921	0.614909	1.29385	-0.623998	0.612165	1.28546	-0.546838	1.0341	0.121246	-0.455518	0.763183	1.03869	-0.396009	1.13623	0.45594	-0.393988	1.05351	0.401966	-0.4525	1.05867	0.318984	-0.392778	0.928406	0.841842	-0.515379	1.06533	0.783447	-0.494561	1.08757	0.665608	-0.467402	1.0971	0.127745	-0.373042	0.788164	1.4424	-0.58654	0.719255	1.39778	-0.537697	0.670711	1.35792	-0.5972	0.929833	1.50021	-0.204258	0.935449	0.992196	-0.212161	0.304712	0.27158	-0.287958	1.1168	1.21749	-0.0799392	0.984346	1.23153	-0.00194939	1.11432	1.15234	-0.0492926	0.879688	1.23776	0.0195705	0.843177	1.20078	-0.0450168	0.362844	0.095953	-0.221021	0.764069	1.03675	-0.295972	0.584547	0.407728	-0.273185	0.520174	0.383889	-0.210991	0.46578	0.284493	-0.272946	0.770619	0.840384	-0.161924	0.79427	0.718901	-0.181185	0.668257	0.649538	-0.20725	0.410664	0.0744041	-0.307451	0.908747	1.44037	-0.101063	0.846616	1.36799	-0.0903734	0.894649	1.32957	-0.0430636
